<svg fill="#70C041" xmlns="http://www.w3.org/2000/svg" xmlns:xlink="http://www.w3.org/1999/xlink" version="1.1" x="0px" y="0px" viewBox="0 0 100 100" enable-background="new 0 0 100 100" xml:space="preserve"><path d="M26.7,71.5c3.1-0.5,5-2,5.7-4.5c0.8-3.3-0.8-7.4-2.2-8.5c-0.9-0.6-2.1-1-3.5-1.2c-0.1,0-0.2,0-0.3,0  c-6.5-0.6-17.1,2.6-19,3.9c-0.9,0.6-1.8,1.3-2.1,2.8c0,0.3-0.1,0.6-0.1,0.8c-0.1,1.2,0,2.8,0.6,5.1c1.1,4.3,7.6,3.6,17.3,2.1  C24.3,71.8,25.5,71.6,26.7,71.5z"></path><path d="M65.3,69.6c-1.4,1.2-2.9,2-4.4,2.4c-1,0.2-1.9,0.4-2.8,0.5c-6.6,0.7-11.5-2.2-13.7-3.8c-0.4,0.4-0.7,0.7-1.1,0.9  c-2.2,1.5-4.3,2.1-6,2.3c-1.4,0.1-2.7,0-3.5-0.2c-1.5,1.7-3.7,2.9-6.6,3.3c-1.2,0.2-2.5,0.4-3.7,0.6c-2.4,0.4-4.9,0.8-7.2,1  c-1,0.1-2.1,0.2-3,0.2c7.2,4.8,20.2,11.8,34,11c13-0.8,24.2-8.3,30.8-13.8c-0.2,0-0.4,0-0.6,0C72.3,73.9,67.7,71.6,65.3,69.6z"></path><path d="M94.3,31.5c-0.4-1.5-1-2.5-1.6-2.8c-2.4-1.3-4-0.6-6.1,0.3c-1.7,0.8-3.7,1.6-6,0.9c-3.5-1.2-4.6-3.2-5.5-4.8  c-0.7-1.3-1.2-2.2-2.9-2.8c-1.8-0.6-2.7-0.1-4.1,0.6c-1.6,0.8-3.7,1.9-6.9,0.9c-2.9-0.9-4.3-2.8-5.4-4.3c-1.1-1.5-1.9-2.5-3.8-2.9  c-2.2-0.5-3.7,0.1-5.4,0.9c-1.9,0.8-4.1,1.7-7.2,1c-2.1-0.4-3.4-2-4.6-3.5c-1.8-2.2-2.9-3.5-6.2-1.9c-7.2,3.4-17.7,25.3-22.2,44.8  c3.4-1.6,12.2-4.3,19.2-4c1.5-3.9,6.5-16.5,9.5-25.9c0.3-0.9,1.3-1.4,2.2-1.1c0.9,0.3,1.4,1.2,1.1,2.2c-2.8,9-7.5,20.8-9.3,25.4  c1.2,0.3,2.3,0.8,3.2,1.4c2.6,1.9,4.7,7.4,3.5,12.1c-0.1,0.2-0.1,0.4-0.2,0.6c1.3,0.1,3.4-0.1,5.8-1.7c0.5-0.3,0.9-0.8,1.4-1.3  c0.1-0.1,0.1-0.2,0.2-0.3c0,0,0,0,0,0c4.9-6.2,10.8-24.2,12.9-31.3c0.3-0.9,1.2-1.4,2.1-1.2c0.9,0.3,1.4,1.2,1.2,2.1  c-0.7,2.6-6.6,22.4-12.7,31.3c2.1,1.5,7,4.3,13.5,2.7c1.4-0.3,2.7-1.2,4-2.5c0.1-0.1,0.2-0.2,0.3-0.3C70,59.8,74.4,46,75.9,40  c0.2-0.9,1.2-1.5,2.1-1.3c0.9,0.2,1.5,1.2,1.3,2.1c-0.6,2.2-4.6,18-11.5,26.3c1.7,1.3,5.6,3.3,9.7,3.3c4.2-0.1,7.6-2.2,10.1-6.4  C94.1,52.6,96.2,38.3,94.3,31.5z"></path></svg>